<svg xmlns="http://www.w3.org/2000/svg" version="1.1" xmlns:xlink="http://www.w3.org/1999/xlink" xmlns:svgjs="http://svgjs.dev/svgjs" width="1440" height="560" preserveAspectRatio="none" viewBox="0 0 1440 560"><g mask="url(&quot;#SvgjsMask1006&quot;)" fill="none"><rect width="1440" height="560" x="0" y="0" fill="rgba(0, 204, 76, 1)"></rect><path d="M0,499.741C93.801,504.974,191.881,468.265,258.12,401.643C320.351,339.052,320.966,241.845,341.71,156.054C358.552,86.403,380.648,17.624,368.033,-52.915C355.672,-122.032,303.654,-172.908,271.698,-235.428C227.479,-321.94,226.56,-439.469,144.15,-490.93C60.506,-543.162,-54.511,-533.697,-145.651,-496.041C-233.608,-459.7,-284.863,-371.648,-337.095,-292.094C-383.491,-221.429,-418.224,-145.535,-430.678,-61.922C-443.179,22.011,-442.359,108.741,-408.379,186.5C-374.086,264.975,-308.207,321.72,-240.254,373.842C-167.031,430.007,-92.14,494.601,0,499.741" fill="#00a33d"></path><path d="M1440 1106.989C1540.835 1089.8809999999999 1627.133 1039.53 1717.97 992.53 1818.8319999999999 940.3430000000001 1943.019 913.771 2001.536 816.4449999999999 2061.531 716.66 2062.648 586.769 2028.937 475.324 1997.242 370.546 1896.268 309.474 1823.4560000000001 227.73399999999998 1751.844 147.341 1696.6480000000001 55.08499999999998 1604.704-0.92999999999995 1491.734-69.755 1358.212-183.591 1237.644-129.163 1111.996-72.44200000000001 1126.559 114.00999999999999 1070.8020000000001 240.08800000000002 1033.1770000000001 325.166 997.3679999999999 404.927 963.183 491.444 917.212 607.788 808.92 713.88 835.275 836.169 861.679 958.6859999999999 979.6089999999999 1047.173 1093.992 1098.399 1201.464 1146.529 1323.902 1126.687 1440 1106.989" fill="#00f55b"></path></g><defs><mask id="SvgjsMask1006"><rect width="1440" height="560" fill="#ffffff"></rect></mask></defs></svg>